# xmcd CD database file generated by Grip 2.96
# 
# Track frame offsets:
#       183
#       24378
#       42495
#       58335
#       74053
#       89723
#       105188
#       121265
#       136480
#       152093
#       166948
#       182065
#       196635
#       212155
#       226093
#       240328
# 
# Disc length: 3412 seconds
# 
# Revision: 0
# Processed by: cddbd v1.5PL3 Copyright (c) Steve Scherf et al.
# Submitted via: Grip 2.96
# 
DISCID=d80d5210
DTITLE=P. Susila - Old Hits of P. Susila
DYEAR=1900
DGENRE=
TTITLE0=Unnaikaanadha Kannum
TTITLE1=Malarkal Nanaindana
TTITLE2=Kahdhal Ennum Vadivum
TTITLE3=Kanavandha Katchi
TTITLE4=Kannan Ennum Mannan
TTITLE5=Ammamma Katru
TTITLE6=Ayirum Penmai
TTITLE7=Irai Podum Manithan
TTITLE8=Melaadai Kaatrada
TTITLE9=Cittu Kuruvi Muttham
TTITLE10=Paratha Gnapagam
TTITLE11=Kadavul Oru Naal
TTITLE12=Paarthaal Pasitheerum
TTITLE13=Atthaan Ennaithaan
TTITLE14=Paalirukkum
TTITLE15=Aalaya Maniyin
EXTD=
EXTT0=
EXTT1=
EXTT2=
EXTT3=
EXTT4=
EXTT5=
EXTT6=
EXTT7=
EXTT8=
EXTT9=
EXTT10=
EXTT11=
EXTT12=
EXTT13=
EXTT14=
EXTT15=
PLAYORDER=
